<svg width="160" height="160" viewBox="0 0 160 160" fill="none" xmlns="http://www.w3.org/2000/svg">
<rect width="160" height="160" rx="8" fill="#6E68BF"/>
<path d="M79.86 30.6C88.6333 30.6 96.2867 32.3267 102.82 35.78C109.353 39.2333 114.393 44.3667 117.94 51.18C121.58 57.9 123.4 66.0667 123.4 75.68V130H105.2V104.8H54.24V130H36.32V75.68C36.32 66.0667 38.0933 57.9 41.64 51.18C45.28 44.3667 50.3667 39.2333 56.9 35.78C63.4333 32.3267 71.0867 30.6 79.86 30.6ZM105.2 89.54V74C105.2 64.9467 102.96 58.1333 98.48 53.56C94 48.8933 87.7467 46.56 79.72 46.56C71.6933 46.56 65.44 48.8933 60.96 53.56C56.48 58.1333 54.24 64.9467 54.24 74V89.54H105.2Z" fill="white"/>
</svg>
